<mxfile host="app.diagrams.net" modified="2021-07-14T18:15:33.833Z" agent="5.0 (Windows NT 6.1; Win64; x64) AppleWebKit/537.36 (KHTML, like Gecko) Chrome/91.0.4472.124 Safari/537.36" etag="RuOnyjx5L2mbn11bTjE1" version="14.8.0" type="github">
  <diagram id="X5O9C8FtlWpXsh8f0N7r" name="Page-1">
    <mxGraphModel dx="764" dy="317" grid="1" gridSize="10" guides="1" tooltips="1" connect="1" arrows="1" fold="1" page="1" pageScale="1" pageWidth="827" pageHeight="1169" math="0" shadow="0">
      <root>
        <mxCell id="0" />
        <mxCell id="1" parent="0" />
        <mxCell id="CUOFOdXcDF6EJIyeG5Se-1" value="User Model" style="swimlane;fontStyle=0;childLayout=stackLayout;horizontal=1;startSize=26;fillColor=none;horizontalStack=0;resizeParent=1;resizeParentMax=0;resizeLast=0;collapsible=1;marginBottom=0;" vertex="1" parent="1">
          <mxGeometry x="460" y="130" width="140" height="120" as="geometry" />
        </mxCell>
        <mxCell id="CUOFOdXcDF6EJIyeG5Se-2" value="name: string&#xa;email: string&#xa;createdAt: Date&#xa;updatedAt: Date&#xa;role: Role" style="text;strokeColor=none;fillColor=none;align=left;verticalAlign=top;spacingLeft=4;spacingRight=4;overflow=hidden;rotatable=0;points=[[0,0.5],[1,0.5]];portConstraint=eastwest;" vertex="1" parent="CUOFOdXcDF6EJIyeG5Se-1">
          <mxGeometry y="26" width="140" height="94" as="geometry" />
        </mxCell>
        <mxCell id="CUOFOdXcDF6EJIyeG5Se-5" value="Role Model" style="swimlane;fontStyle=0;childLayout=stackLayout;horizontal=1;startSize=26;fillColor=none;horizontalStack=0;resizeParent=1;resizeParentMax=0;resizeLast=0;collapsible=1;marginBottom=0;" vertex="1" parent="1">
          <mxGeometry x="90" y="130" width="160" height="90" as="geometry" />
        </mxCell>
        <mxCell id="CUOFOdXcDF6EJIyeG5Se-6" value="name: string&#xa;users: User[]&#xa;permissions: Permissions[]" style="text;strokeColor=none;fillColor=none;align=left;verticalAlign=top;spacingLeft=4;spacingRight=4;overflow=hidden;rotatable=0;points=[[0,0.5],[1,0.5]];portConstraint=eastwest;" vertex="1" parent="CUOFOdXcDF6EJIyeG5Se-5">
          <mxGeometry y="26" width="160" height="64" as="geometry" />
        </mxCell>
        <mxCell id="CUOFOdXcDF6EJIyeG5Se-7" value="Permission Model" style="swimlane;fontStyle=0;childLayout=stackLayout;horizontal=1;startSize=26;fillColor=none;horizontalStack=0;resizeParent=1;resizeParentMax=0;resizeLast=0;collapsible=1;marginBottom=0;" vertex="1" parent="1">
          <mxGeometry x="254" y="330" width="160" height="90" as="geometry" />
        </mxCell>
        <mxCell id="CUOFOdXcDF6EJIyeG5Se-8" value="enum OPERATION {CRUD}&#xa;&#xa;type: OPERATION" style="text;strokeColor=none;fillColor=none;align=left;verticalAlign=top;spacingLeft=4;spacingRight=4;overflow=hidden;rotatable=0;points=[[0,0.5],[1,0.5]];portConstraint=eastwest;" vertex="1" parent="CUOFOdXcDF6EJIyeG5Se-7">
          <mxGeometry y="26" width="160" height="64" as="geometry" />
        </mxCell>
        <mxCell id="CUOFOdXcDF6EJIyeG5Se-12" value="" style="endArrow=block;endFill=1;html=1;edgeStyle=orthogonalEdgeStyle;align=left;verticalAlign=top;entryX=0.007;entryY=0.745;entryDx=0;entryDy=0;entryPerimeter=0;" edge="1" parent="1" target="CUOFOdXcDF6EJIyeG5Se-2">
          <mxGeometry x="-1" relative="1" as="geometry">
            <mxPoint x="250" y="180" as="sourcePoint" />
            <mxPoint x="410" y="180" as="targetPoint" />
          </mxGeometry>
        </mxCell>
        <mxCell id="CUOFOdXcDF6EJIyeG5Se-13" value="* &amp;gt; 1" style="edgeLabel;resizable=0;html=1;align=left;verticalAlign=bottom;" connectable="0" vertex="1" parent="CUOFOdXcDF6EJIyeG5Se-12">
          <mxGeometry x="-1" relative="1" as="geometry" />
        </mxCell>
        <mxCell id="CUOFOdXcDF6EJIyeG5Se-21" value="" style="endArrow=block;endFill=1;html=1;edgeStyle=orthogonalEdgeStyle;align=left;verticalAlign=top;entryX=0.5;entryY=0;entryDx=0;entryDy=0;" edge="1" parent="1" target="CUOFOdXcDF6EJIyeG5Se-7">
          <mxGeometry x="-1" relative="1" as="geometry">
            <mxPoint x="250" y="200" as="sourcePoint" />
            <mxPoint x="350" y="320" as="targetPoint" />
          </mxGeometry>
        </mxCell>
        <mxCell id="CUOFOdXcDF6EJIyeG5Se-22" value="* &amp;gt; 1" style="edgeLabel;resizable=0;html=1;align=left;verticalAlign=bottom;" connectable="0" vertex="1" parent="CUOFOdXcDF6EJIyeG5Se-21">
          <mxGeometry x="-1" relative="1" as="geometry" />
        </mxCell>
      </root>
    </mxGraphModel>
  </diagram>
</mxfile>
